<svg width="512" height="512" viewBox="0 0 512 512" fill="none" xmlns="http://www.w3.org/2000/svg">
  <rect width="512" height="512" fill="#1a1a1a"/>
  <g transform="translate(128, 128)">
    <rect x="0" y="0" width="32" height="32" fill="white"/>
    <rect x="32" y="0" width="32" height="32" fill="black"/>
    <rect x="64" y="0" width="32" height="32" fill="white"/>
    <rect x="96" y="0" width="32" height="32" fill="black"/>
    <rect x="128" y="0" width="32" height="32" fill="white"/>
    <rect x="160" y="0" width="32" height="32" fill="black"/>
    <rect x="192" y="0" width="32" height="32" fill="white"/>
    <rect x="224" y="0" width="32" height="32" fill="black"/>

    <rect x="0" y="32" width="32" height="32" fill="black"/>
    <rect x="32" y="32" width="32" height="32" fill="white"/>
    <rect x="64" y="32" width="32" height="32" fill="black"/>
    <rect x="96" y="32" width="32" height="32" fill="white"/>
    <rect x="128" y="32" width="32" height="32" fill="black"/>
    <rect x="160" y="32" width="32" height="32" fill="white"/>
    <rect x="192" y="32" width="32" height="32" fill="black"/>
    <rect x="224" y="32" width="32" height="32" fill="white"/>

    <rect x="0" y="64" width="32" height="32" fill="white"/>
    <rect x="32" y="64" width="32" height="32" fill="black"/>
    <rect x="64" y="64" width="32" height="32" fill="white"/>
    <rect x="96" y="64" width="32" height="32" fill="black"/>
    <rect x="128" y="64" width="32" height="32" fill="white"/>
    <rect x="160" y="64" width="32" height="32" fill="black"/>
    <rect x="192" y="64" width="32" height="32" fill="white"/>
    <rect x="224" y="64" width="32" height="32" fill="black"/>

    <rect x="0" y="96" width="32" height="32" fill="black"/>
    <rect x="32" y="96" width="32" height="32" fill="white"/>
    <rect x="64" y="96" width="32" height="32" fill="black"/>
    <rect x="96" y="96" width="32" height="32" fill="white"/>
    <rect x="128" y="96" width="32" height="32" fill="black"/>
    <rect x="160" y="96" width="32" height="32" fill="white"/>
    <rect x="192" y="96" width="32" height="32" fill="black"/>
    <rect x="224" y="96" width="32" height="32" fill="white"/>

    <rect x="0" y="128" width="32" height="32" fill="white"/>
    <rect x="32" y="128" width="32" height="32" fill="black"/>
    <rect x="64" y="128" width="32" height="32" fill="white"/>
    <rect x="96" y="128" width="32" height="32" fill="black"/>
    <rect x="128" y="128" width="32" height="32" fill="white"/>
    <rect x="160" y="128" width="32" height="32" fill="black"/>
    <rect x="192" y="128" width="32" height="32" fill="white"/>
    <rect x="224" y="128" width="32" height="32" fill="black"/>

    <rect x="0" y="160" width="32" height="32" fill="black"/>
    <rect x="32" y="160" width="32" height="32" fill="white"/>
    <rect x="64" y="160" width="32" height="32" fill="black"/>
    <rect x="96" y="160" width="32" height="32" fill="white"/>
    <rect x="128" y="160" width="32" height="32" fill="black"/>
    <rect x="160" y="160" width="32" height="32" fill="white"/>
    <rect x="192" y="160" width="32" height="32" fill="black"/>
    <rect x="224" y="160" width="32" height="32" fill="white"/>

    <rect x="0" y="192" width="32" height="32" fill="white"/>
    <rect x="32" y="192" width="32" height="32" fill="black"/>
    <rect x="64" y="192" width="32" height="32" fill="white"/>
    <rect x="96" y="192" width="32" height="32" fill="black"/>
    <rect x="128" y="192" width="32" height="32" fill="white"/>
    <rect x="160" y="192" width="32" height="32" fill="black"/>
    <rect x="192" y="192" width="32" height="32" fill="white"/>
    <rect x="224" y="192" width="32" height="32" fill="black"/>

    <rect x="0" y="224" width="32" height="32" fill="black"/>
    <rect x="32" y="224" width="32" height="32" fill="white"/>
    <rect x="64" y="224" width="32" height="32" fill="black"/>
    <rect x="96" y="224" width="32" height="32" fill="white"/>
    <rect x="128" y="224" width="32" height="32" fill="black"/>
    <rect x="160" y="224" width="32" height="32" fill="white"/>
    <rect x="192" y="224" width="32" height="32" fill="black"/>
    <rect x="224" y="224" width="32" height="32" fill="white"/>
  </g>
  <rect x="96" y="128" width="8" height="256" fill="#333"/>
</svg>
